<svg width="32" height="33" viewBox="0 0 32 33" fill="none" xmlns="http://www.w3.org/2000/svg">
<path d="M18.6667 16.5007V11.834C18.6667 10.73 17.7707 9.83398 16.6667 9.83398V9.83398C15.5627 9.83398 14.6667 10.73 14.6667 11.834" stroke="#888888" stroke-width="2" stroke-linecap="round" stroke-linejoin="round"/>
<path d="M18.6667 13.167C18.6667 12.063 19.5627 11.167 20.6667 11.167V11.167C21.7707 11.167 22.6667 12.063 22.6667 13.167V17.8337" stroke="#888888" stroke-width="2" stroke-linecap="round" stroke-linejoin="round"/>
<path d="M10.6667 13.8333H10.3667C9.27736 13.8333 8.23336 14.2653 7.46403 15.036V15.036C6.54269 15.9573 6.11336 17.26 6.30669 18.548L6.97736 23.02C7.56536 26.936 10.9294 29.8333 14.8894 29.8333H18.6667C23.0854 29.8333 26.6667 26.252 26.6667 21.8333V16.5V14.5C26.6667 13.396 25.7707 12.5 24.6667 12.5V12.5C23.5627 12.5 22.6667 13.396 22.6667 14.5" stroke="#888888" stroke-width="2" stroke-linecap="round" stroke-linejoin="round"/>
<path d="M10.6667 16.5003V5.16699C10.6667 4.06299 11.5627 3.16699 12.6667 3.16699V3.16699C13.7707 3.16699 14.6667 4.06299 14.6667 5.16699V16.5003" stroke="#888888" stroke-width="2" stroke-linecap="round" stroke-linejoin="round"/>
</svg>
