<svg width="36" height="36" viewBox="0 0 36 36" fill="none" xmlns="http://www.w3.org/2000/svg">
<path fill-rule="evenodd" clip-rule="evenodd" d="M18.4192 18.4001L20.2869 18.0259C20.557 17.9728 20.8055 17.8413 21.0012 17.6478L26.4555 12.1975C27.1867 11.4658 27.1867 10.2801 26.4555 9.54841V9.54841C25.7239 8.8172 24.5381 8.8172 23.8064 9.54841L18.3521 14.9987C18.1572 15.1939 18.0242 15.4424 17.97 15.713L17.5998 17.5808C17.5563 17.8087 17.6284 18.0434 17.7925 18.2074C17.9566 18.3715 18.1913 18.4437 18.4192 18.4001Z" stroke="#111111" stroke-width="1.5" stroke-linecap="round" stroke-linejoin="round"/>
<path d="M15.3639 20.4247C18.4892 23.55 22.767 24.3423 24.9129 22.1934C26.7216 20.3847 26.4405 17.0713 24.4447 14.2041" stroke="#111111" stroke-width="1.5" stroke-linecap="round" stroke-linejoin="round"/>
<path d="M21.8416 11.5093C18.083 8.61811 13.3831 8.25696 10.765 10.875C7.83476 13.8053 8.62708 19.3476 12.5337 23.2542C14.2443 24.9929 16.3587 26.2811 18.6883 27.0038" stroke="#111111" stroke-width="1.5" stroke-linecap="round" stroke-linejoin="round"/>
</svg>
