<svg width="32" height="32" viewBox="0 0 32 32" fill="none" xmlns="http://www.w3.org/2000/svg">
<path d="M17.8894 10.9075C18.9014 11.9195 18.9014 13.5621 17.8894 14.5741C16.8774 15.5861 15.2347 15.5861 14.2227 14.5741C13.2107 13.5621 13.2107 11.9195 14.2227 10.9075C15.236 9.89413 16.8774 9.89413 17.8894 10.9075" stroke="#888888" stroke-width="2" stroke-linecap="round" stroke-linejoin="round"/>
<path fill-rule="evenodd" clip-rule="evenodd" d="M20.444 8.29567L19.0934 6.05034C18.8254 5.60501 18.344 5.33301 17.824 5.33301H14.136C13.6094 5.33301 13.1227 5.61301 12.8574 6.06767L11.556 8.29567H9.51869C8.49602 8.29567 7.66669 9.12501 7.66669 10.1477V16.8143C7.66669 17.837 8.49602 18.6663 9.51869 18.6663H22.4814C23.504 18.6663 24.3334 17.837 24.3334 16.8143V10.1477C24.3334 9.12501 23.504 8.29567 22.4827 8.29567H20.444V8.29567Z" stroke="#888888" stroke-width="2.5" stroke-linecap="round" stroke-linejoin="round"/>
<path d="M14.2227 28L16 26.2226L14.2227 24.4453" stroke="#888888" stroke-width="2.5" stroke-linecap="round" stroke-linejoin="round"/>
<path d="M27.852 18.6748C28.7894 19.3841 29.3334 20.1841 29.3334 21.0375C29.3334 23.2188 25.8667 25.0815 20.9627 25.8481" stroke="#888888" stroke-width="2" stroke-linecap="round" stroke-linejoin="round"/>
<path d="M4.14802 18.6748C3.21069 19.3841 2.66669 20.1841 2.66669 21.0375C2.66669 23.9015 8.63602 26.2228 16 26.2228" stroke="#888888" stroke-width="2" stroke-linecap="round" stroke-linejoin="round"/>
</svg>
